<?xml version="1.0" encoding="UTF-8" standalone="no"?>
<svg width="182px" height="68px" viewBox="0 0 182 68" version="1.1" xmlns="http://www.w3.org/2000/svg" xmlns:xlink="http://www.w3.org/1999/xlink" xmlns:sketch="http://www.bohemiancoding.com/sketch/ns">
    <!-- Generator: Sketch 3.2.2 (9983) - http://www.bohemiancoding.com/sketch -->
    <title>Slice 1</title>
    <desc>Created with Sketch.</desc>
    <defs></defs>
    <g id="Page-1" stroke="none" stroke-width="1" fill="none" fill-rule="evenodd" sketch:type="MSPage">
        <path d="M48.0640062,35.4560001 C48.7360063,35.4560001 50.3680066,35.048 50.3680066,34.6879999 C50.3680066,34.4479999 50.0080066,34.0399998 49.7920065,34.0399998 C49.6720065,34.0399998 48.8800064,34.4719999 48.2080063,34.4719999 C46.816006,34.4719999 46.0480059,31.6879995 44.4640056,31.6879995 C43.0720054,31.6879995 42.0640053,33.2719997 40.8640051,33.2719997 C40.8400051,33.2719997 40.8160051,33.2719997 40.792005,33.2479997 C41.9920052,32.2879996 42.8080054,30.9919993 42.8080054,30.3199992 C42.8080054,29.2399991 42.1840053,28.639999 41.0560051,28.639999 C39.4960048,28.639999 37.2640045,30.0559992 37.2640045,31.6639995 C37.2640045,32.3119996 37.6960045,33.0079997 38.6080047,33.7039998 C37.6000045,34.2799999 36.5920044,34.5439999 35.5840042,34.5439999 C32.4880037,34.5439999 29.0560031,31.4479994 28.9600031,27.6079988 C34.456004,24.7039983 38.9680047,19.9279975 38.9680047,17.3599971 C38.9680047,16.2799969 38.1760046,15.6079968 36.3520043,15.6079968 C31.3120035,15.6079968 28.024003,19.6159975 27.4480029,26.8639987 C25.5760026,27.9439988 24.6400024,28.1119989 23.3440022,28.615999 L22.8400021,26.9839987 C22.264002,24.3199982 21.3280019,21.2239977 21.0160018,19.6879975 C21.2320018,19.0159974 24.3760024,17.7439972 24.3760024,14.0479966 C24.3760024,12.0079962 23.1040021,11.0239961 21.7600019,11.0239961 C20.2000017,11.0239961 18.5200014,12.2959963 18.5200014,14.5279966 C18.5200014,15.6799968 18.7360014,17.1199971 18.9520015,18.2479973 C18.8560015,18.8719974 7.83999965,18.7279973 7.83999965,20.6479976 C7.83999965,21.8719978 10.12,21.9439979 11.0800002,21.9439979 C13.6000006,21.9439979 17.2720012,20.6239976 19.5760016,20.1679976 C20.6080017,22.591998 21.5200019,26.4559986 22.000002,29.095999 C17.4880012,30.7519993 15.0640008,34.0399998 15.0640008,36.5600003 C15.0640008,38.4800006 16.384001,39.9200008 19.1440015,39.9200008 C22.8640021,39.9200008 23.8960023,36.8960003 23.8960023,33.3439997 C23.8960023,32.2399995 23.8000023,31.0639994 23.6560022,29.9359992 C25.0480025,29.3119991 26.7040027,28.687999 27.5920029,28.2319989 C28.528003,32.3119996 31.5040035,35.5040001 35.3680042,35.5040001 C36.6880044,35.5040001 37.8160046,35.3360001 39.6400049,34.1839999 C39.8800049,34.2559999 40.1680049,34.2559999 40.456005,34.2559999 C42.0400053,34.2559999 43.0720054,33.0079997 44.1520056,33.0079997 C45.1600058,33.0079997 46.2880059,35.4560001 48.0640062,35.4560001 L48.0640062,35.4560001 Z M22.264002,30.5839993 C22.5280021,31.5919994 22.6480021,32.6239996 22.6480021,33.6079998 C22.6480021,36.4160002 21.6160019,38.7920006 19.5280016,38.7920006 C17.3680012,38.7920006 16.4080011,37.7840005 16.4080011,36.4640002 C16.4080011,34.3759999 18.7360014,31.5199994 22.192002,30.5599993 L22.264002,30.5839993 Z M36.1600043,16.831997 C36.9760044,16.831997 37.3360045,17.1679971 37.3360045,17.6959972 C37.3360045,19.4239974 33.4240038,23.5759981 28.8400031,26.2879986 C28.9120031,20.6479976 32.5600037,16.831997 36.1600043,16.831997 L36.1600043,16.831997 Z M23.2240022,14.0239966 C23.2240022,15.6079968 22.432002,16.831997 20.3200017,18.1039972 C20.1760017,17.4079971 19.9360016,16.1599969 19.9360016,15.1039967 C19.9360016,13.1599964 20.7520018,12.4639963 21.5440019,12.4639963 C22.384002,12.4639963 23.2240022,13.2079964 23.2240022,14.0239966 L23.2240022,14.0239966 Z M40.792005,29.9599992 C41.2000051,29.9599992 41.4160051,30.2239992 41.4160051,30.5839993 C41.4160051,31.1359994 40.336005,32.4799996 39.6400049,32.9599997 C38.8720047,32.7919996 38.5840047,32.1439995 38.5840047,31.7119995 C38.5840047,31.0159993 39.7120049,29.9599992 40.792005,29.9599992 L40.792005,29.9599992 Z M51.4720003,32.6239996 C50.8960002,33.2719997 50.0800001,33.8959998 49.3119999,34.2319999 C49.1679999,34.2799999 49.1679999,34.4479999 49.1679999,34.5199999 C49.1679999,34.832 49.2159999,35.072 49.72,35.072 C50.008,35.072 51.1840002,34.4719999 52.1920004,33.5359998 C53.8480007,31.9759995 54.6160008,30.6799993 55.0480009,30.6799993 C56.1760011,30.6799993 56.5600011,35.24 58.7200015,35.24 C60.1840017,35.24 61.912002,30.8239993 62.7520021,30.8239993 C63.8800023,30.8239993 63.7120023,35.5280001 66.3280027,35.5280001 C68.4400031,35.5280001 69.8800033,30.9679993 70.8400035,30.9679993 C71.5600036,30.9679993 71.3440035,35.4800001 74.7040041,35.4800001 C76.3600044,35.4800001 77.5840046,34.952 77.5840046,34.712 C77.5840046,34.4719999 77.2720045,34.0399998 76.9840045,34.0399998 C76.8160044,34.0399998 76.2400043,34.4959999 74.9920041,34.4959999 C72.2080037,34.4959999 72.9520038,29.2879991 71.2480035,29.2879991 C68.8240031,29.2879991 68.200003,34.2559999 66.0640027,34.2559999 C65.0080025,34.2559999 64.4320024,28.663999 62.9680022,28.663999 C61.4080019,28.663999 59.8960017,33.6559998 58.6240015,33.6559998 C57.7840013,33.6559998 56.9680012,28.975999 55.1920009,28.975999 C54.0160007,28.975999 52.4800004,31.4719994 51.4720003,32.6239996 L51.4720003,32.6239996 Z M87.5920017,27.3919988 C88.6240019,27.3919988 88.864002,28.711999 88.864002,29.7439991 C88.864002,30.1039992 88.8400019,30.4639993 88.7920019,30.6799993 C88.0000018,30.6559993 87.1360017,29.8159992 87.1360017,28.3519989 C87.1360017,28.0159989 87.2560017,27.3919988 87.5920017,27.3919988 L87.5920017,27.3919988 Z M81.9280008,20.6959977 C82.0960008,17.9359972 82.6240009,15.7999969 83.3920011,15.7999969 C83.7280011,15.7999969 83.8480011,16.471997 83.8480011,17.3119971 C83.8480011,20.3599976 82.1440008,27.3679987 81.7600008,27.3679987 C81.7360008,27.3679987 81.7120008,27.0559987 81.7120008,26.5759986 C81.7120008,25.0399984 81.8560008,21.7039978 81.9280008,20.6959977 L81.9280008,20.6959977 Z M105.520005,35.4560001 C107.440005,35.4560001 108.280005,34.856 108.280005,34.712 C108.280005,34.4719999 107.968005,34.0399998 107.680005,34.0399998 C107.536005,34.0399998 106.912005,34.4719999 105.952005,34.4719999 C104.320004,34.4719999 103.888004,32.7199996 103.552004,30.4399993 C103.480004,29.8879992 103.600004,29.2879991 102.688004,29.2879991 C102.400004,29.2879991 102.184004,29.6239991 102.016004,30.1519992 C101.536004,31.8319995 100.432004,34.1599999 98.7760036,34.1599999 C96.8560033,34.1599999 96.2080032,31.2079994 96.2080032,29.6479991 C96.1360031,28.4239989 96.3520032,28.2559989 95.560003,28.2319989 C95.368003,28.2319989 95.272003,28.2559989 95.200003,28.3039989 C93.4240027,29.4079991 91.8880024,30.5119993 90.0160021,30.7999993 C90.0400021,30.5599993 90.0400021,30.3199992 90.0400021,30.0559992 C90.0400021,28.1839989 89.5120021,26.0479985 87.4480017,26.0479985 C86.4400016,26.0479985 85.9120015,27.1279987 85.9120015,28.2559989 C85.9120015,30.1999992 87.2080017,31.6399994 88.4320019,31.9759995 C88.1680018,33.5119998 86.6560016,34.4719999 85.4560014,34.4719999 C83.4880011,34.4479999 82.1680009,31.4479994 82.1680009,29.8879992 C84.4240012,24.3439983 85.2400014,19.4959975 85.2400014,16.831997 C85.2400014,15.4639968 84.9040013,13.9279965 83.5600011,13.9279965 C80.7520006,13.9279965 80.5360006,20.6239976 80.5360006,24.5359983 C80.5360006,26.6479986 80.7280006,28.5439989 80.7520006,29.5519991 C80.3920006,30.3919992 79.5760004,31.6399994 78.6880003,32.6239996 C78.1120002,33.2719997 77.2960001,33.8959998 76.5279999,34.2319999 C76.3839999,34.2799999 76.3839999,34.4479999 76.3839999,34.5199999 C76.3839999,34.832 76.4319999,35.072 76.936,35.072 C77.224,35.072 78.2800002,34.5439999 79.3360004,33.5359998 C79.8880005,33.0079997 80.6320006,32.1919995 81.1360007,31.3519994 C81.9520008,33.6559998 83.4640011,35.6000001 85.4560014,35.6000001 C87.4720017,35.6000001 89.008002,34.1359999 89.7520021,31.9999995 C91.6480024,31.8799995 92.9920026,30.9919993 94.3600029,30.2479992 L94.7680029,30.0079992 C94.8400029,31.6159994 95.488003,35.3360001 98.5600035,35.3360001 C100.600004,35.3360001 101.728004,33.7759998 102.640004,32.0479995 C102.712004,33.2959997 103.408004,35.4560001 105.520005,35.4560001 L105.520005,35.4560001 Z M107.224,34.2319999 C107.08,34.2799999 107.08,34.4479999 107.08,34.5199999 C107.08,34.832 107.152,35.072 107.632,35.072 C108.256,35.072 111.328001,33.0559997 111.928001,30.7519993 C112.312001,30.8479993 112.672001,31.0159993 113.080001,31.0159993 C113.752001,31.0159993 114.280001,30.7519993 114.784001,30.7519993 C115.120001,30.7519993 115.168001,31.0399994 115.168001,31.7839995 C115.168001,34.1359999 115.696001,35.4560001 117.616002,35.4560001 C117.856002,35.4560001 118.120002,35.4320001 118.408002,35.3840001 C119.200002,35.264 120.064002,34.952 120.088002,34.712 C120.040002,34.2559999 119.632002,34.0399998 119.488002,34.0399998 C119.392002,34.0399998 118.960002,34.2799999 118.552002,34.3759999 C118.288002,34.4479999 118.096002,34.4719999 117.904002,34.4719999 C116.368001,34.4719999 116.344001,32.6239996 116.344001,31.2799994 C116.344001,30.4639993 116.320001,29.167999 115.336001,29.167999 C114.784001,29.167999 114.088001,29.5519991 113.104001,29.5519991 C112.840001,29.5519991 112.552001,29.5039991 112.240001,29.4079991 C112.240001,28.735999 111.808001,27.8239988 110.968001,27.8239988 C110.584,27.8239988 110.224,28.2559989 110.224,28.831999 C110.224,29.4799991 110.584,29.9359992 110.824001,30.1759992 C110.344,31.6639995 108.952,33.4879998 107.224,34.2319999 L107.224,34.2319999 Z M127.024001,40.1360008 C128.248001,42.2960012 134.392002,52.3760028 134.392002,56.5040035 C134.392002,58.0880038 133.240002,58.7840039 131.920002,58.7840039 C131.104002,58.7840039 130.264002,58.5200039 129.400002,58.0880038 C124.504001,55.5440034 121.96,51.3440027 121.96,47.480002 C121.96,44.4080015 123.592001,41.6000011 127.024001,40.1360008 L127.024001,40.1360008 Z M124.168001,27.9919989 C124.672001,27.9919989 125.368001,28.2799989 125.368001,28.975999 C125.368001,29.6719991 124.504001,30.7039993 123.784001,31.2079994 C123.568001,30.4879993 123.280001,29.5279991 123.280001,29.119999 C123.280001,28.4959989 123.448001,27.9919989 124.168001,27.9919989 L124.168001,27.9919989 Z M138.856003,27.1279987 C140.032003,27.1759987 140.824004,28.3279989 140.824004,29.6719991 C140.824004,31.2559994 138.520003,34.6879999 136.192003,34.6879999 C135.544003,34.6879999 135.016003,34.0879999 135.016003,32.7199996 C135.016003,30.3919992 136.792003,27.1279987 138.856003,27.1279987 L138.856003,27.1279987 Z M148.456005,35.4800001 C150.112005,35.4800001 151.336005,34.952 151.336005,34.712 C151.336005,34.4719999 151.024005,34.0399998 150.736005,34.0399998 C150.568005,34.0399998 149.992005,34.4959999 148.744005,34.4959999 C145.816004,34.4959999 144.592004,30.2719992 142.864004,30.0319992 C142.024004,29.9119992 142.432004,25.9519985 139.120003,25.9519985 C135.736003,25.9519985 133.696002,29.7919991 133.696002,32.8159996 C133.696002,34.808 134.584002,35.5280001 135.544003,35.5280001 C130.720002,37.4000004 132.208002,36.8480003 127.720001,38.6480006 C126.832001,37.2800004 125.056001,33.9679998 124.360001,32.4799996 C125.800001,31.2799994 126.712001,30.1519992 126.712001,28.855999 C126.712001,27.5359988 125.776001,26.6959986 124.264001,26.6959986 C123.184001,26.6959986 122.032,27.2239987 122.032,28.807999 C122.032,29.7679991 122.344,31.0639994 122.752001,31.9759995 C122.104,32.5519996 120.928,33.3439997 119.392,34.0639998 L119.032,34.2319999 C118.888,34.3039999 118.888,34.4479999 118.888,34.5199999 C118.888,34.832 118.936,35.072 119.44,35.072 C119.536,35.072 119.728,35 119.944,34.904 C120.856,34.4959999 122.368,33.7279998 123.280001,33.1039997 C123.976001,34.76 125.536001,37.5200004 126.376001,39.1040007 C122.560001,40.808001 120.688,44.0960015 120.688,47.6480021 C120.688,51.8480028 123.328001,56.3840035 128.464001,59.0480039 C129.568002,59.624004 131.008002,60.1760041 132.472002,60.1760041 C134.056002,60.1760041 135.856003,59.312004 135.856003,56.7440036 C135.856003,51.6320027 129.640002,42.3680012 128.320001,39.7280008 C134.416002,36.7280003 137.848003,36.2240002 139.456003,34.6159999 C140.776003,33.2719997 141.640004,31.6399994 142.264004,31.6399994 C142.864004,31.6399994 143.224004,31.9759995 143.560004,32.3839996 C144.712004,33.7999998 146.104004,35.4800001 148.456005,35.4800001 L148.456005,35.4800001 Z M150.28,34.2319999 C150.136,34.2799999 150.136,34.4479999 150.136,34.5199999 C150.136,34.832 150.208,35.072 150.688,35.072 C151.312,35.072 154.384001,33.0559997 154.984001,30.7519993 C155.368001,30.8479993 155.728001,31.0159993 156.136001,31.0159993 C156.808001,31.0159993 157.336001,30.7519993 157.840001,30.7519993 C158.176001,30.7519993 158.224001,31.0399994 158.224001,31.7839995 C158.224001,34.1359999 158.752001,35.4560001 160.672002,35.4560001 C160.912002,35.4560001 161.176002,35.4320001 161.464002,35.3840001 C162.256002,35.264 163.120002,34.952 163.144002,34.712 C163.096002,34.2559999 162.688002,34.0399998 162.544002,34.0399998 C162.448002,34.0399998 162.016002,34.2799999 161.608002,34.3759999 C161.344002,34.4479999 161.152002,34.4719999 160.960002,34.4719999 C159.424001,34.4719999 159.400001,32.6239996 159.400001,31.2799994 C159.400001,30.4639993 159.376001,29.167999 158.392001,29.167999 C157.840001,29.167999 157.144001,29.5519991 156.160001,29.5519991 C155.896001,29.5519991 155.608001,29.5039991 155.296001,29.4079991 C155.296001,28.735999 154.864001,27.8239988 154.024001,27.8239988 C153.64,27.8239988 153.28,28.2559989 153.28,28.831999 C153.28,29.4799991 153.64,29.9359992 153.880001,30.1759992 C153.4,31.6639995 152.008,33.4879998 150.28,34.2319999 L150.28,34.2319999 Z M169.384001,34.4959999 C167.776001,34.4959999 167.056001,33.3919997 166.576001,32.5039996 C167.968001,31.0399994 168.664001,30.1759992 168.664001,28.783999 C168.664001,27.7519988 168.040001,27.2239987 167.104001,27.2239987 C165.304,27.2239987 164.728,28.759999 164.728,30.3919992 C164.728,31.1839994 164.944,31.9039995 165.064,32.2639996 C164.488,32.7919996 163.768,33.2719997 163.36,33.5359998 C162.952,33.7999998 162.52,34.0399998 162.088,34.2319999 C161.944,34.2799999 161.944,34.4479999 161.944,34.5199999 C161.944,34.832 161.992,35.072 162.496,35.072 C162.712,35.072 163.408,34.736 164.176,34.2319999 C164.752,33.8479998 165.208,33.5359998 165.544,33.2239997 C166.240001,34.4719999 167.632001,35.4800001 169.096001,35.4800001 C170.752001,35.4800001 171.976002,34.952 171.976002,34.712 C171.976002,34.4719999 171.664001,34.0399998 171.376001,34.0399998 C171.208001,34.0399998 170.632001,34.4959999 169.384001,34.4959999 L169.384001,34.4959999 Z M166.864001,28.4959989 C167.272001,28.4959989 167.392001,28.663999 167.392001,29.095999 C167.392001,29.5519991 166.936001,30.5359993 166.120001,31.3999994 C166.024001,31.1839994 165.976001,30.6079993 165.976001,30.3439992 C165.976001,29.4559991 166.240001,28.4959989 166.864001,28.4959989 L166.864001,28.4959989 Z" id="Hamburgare" fill="#919191" sketch:type="MSShapeGroup"></path>
    </g>
</svg>