<?xml version="1.0" encoding="UTF-8" standalone="no"?>
<svg width="199px" height="75px" viewBox="0 0 199 75" version="1.1" xmlns="http://www.w3.org/2000/svg" xmlns:xlink="http://www.w3.org/1999/xlink" xmlns:sketch="http://www.bohemiancoding.com/sketch/ns">
    <!-- Generator: Sketch 3.2.2 (9983) - http://www.bohemiancoding.com/sketch -->
    <title>Slice 1</title>
    <desc>Created with Sketch.</desc>
    <defs></defs>
    <g id="Page-1" stroke="none" stroke-width="1" fill="none" fill-rule="evenodd" sketch:type="MSPage">
        <path d="M10.032002,32.0240002 C6.03200132,26.6799993 1.84000063,19.7999982 1.84000063,12.439997 C1.84000063,4.66399568 5.9040013,2.80799538 5.9040013,1.62399518 C5.9040013,1.14399511 5.45600122,1.14399511 5.16800117,1.14399511 C1.61600059,1.94399524 0.112000346,9.97599655 0.112000346,12.983997 C0.112000346,17.1119977 1.39200056,21.3679984 4.17600101,26.2639992 C10.064002,36.6960009 15.8560029,40.3120015 20.0480036,47.5760027 C20.4640037,48.3120028 20.6560037,49.080003 20.6560037,49.7840031 C20.6560037,51.0000033 20.0480036,52.0880035 18.7040034,52.7280036 C16.7840031,53.6560037 14.5440027,52.7920036 14.5440027,54.4560038 C14.5440027,55.160004 14.9600028,55.384004 15.7600029,55.384004 C16.8480031,55.384004 18.4160033,54.9040039 19.3120035,54.4880038 C21.6160039,53.3680037 22.640004,51.7360034 22.640004,49.9440031 C22.640004,48.9840029 22.352004,47.9920028 21.8080039,47.0000026 C18.9280034,41.7200018 13.5840026,36.824001 10.032002,32.0240002 L10.032002,32.0240002 Z M19.0240034,30.904 C19.1840035,33.1440004 19.8240036,33.1760004 20.3040037,33.1760004 C20.6560037,33.1760004 20.8480037,33.1760004 20.8480037,32.5680003 C20.8480037,32.3120002 20.8480037,32.0560002 20.7840037,31.6720001 C19.5040035,25.3359991 18.8000034,20.9199983 18.7680034,17.4639978 C18.7680034,17.2079977 18.8000034,16.9519977 18.8000034,16.7279977 C25.1040044,15.9279975 27.1840048,14.7439973 27.1840048,14.1039972 C27.1840048,13.3039971 22.0640039,13.3039971 18.8640034,12.407997 C18.5120034,12.3759969 18.4160033,10.1359966 18.4160033,7.44799614 C18.4160033,6.96799606 18.3520033,6.67999601 18.0000033,6.67999601 C17.1040031,6.67999601 17.2000031,6.96799606 17.1040031,8.05599624 C16.8800031,10.6479967 16.6880031,12.2479969 16.6880031,12.407997 C15.1520028,12.3759969 13.0080025,11.7999969 10.7040021,11.7999969 C9.77600193,11.7999969 9.64800191,12.2479969 9.64800191,13.0159971 C9.64800191,14.3919973 11.8880023,16.7599977 16.8160031,16.7599977 C17.2000031,16.7599977 17.1040031,19.8639982 19.0240034,30.904 L19.0240034,30.904 Z M29.7440005,24.2479989 C29.7440005,26.8399993 31.1840007,31.7040001 34.9600014,31.7040001 C37.5200018,31.7040001 38.800002,28.7919996 38.800002,26.3599992 C38.800002,25.7839991 38.800002,25.4639991 38.736002,25.015999 C39.5680021,24.951999 44.3680029,24.599999 44.3680029,22.9679987 C44.3680029,22.7759987 44.3040029,22.4559986 44.1120029,22.4559986 C43.7600028,22.4879986 41.1040024,23.4799988 38.896002,23.4799988 C38.608002,23.4799988 38.4480019,23.4159988 38.4160019,23.2879987 C37.7760018,21.3999984 36.4320016,19.7679982 34.8960013,19.7679982 C33.4880011,19.7679982 32.784001,20.5679983 32.784001,21.5279984 C32.784001,22.8719987 34.1920012,24.3759989 37.0080017,24.919999 C37.1360017,25.3039991 37.2320017,25.8159992 37.2320017,26.5519993 C37.2320017,28.0559995 36.1760016,30.0079998 34.7040013,30.0079998 C32.1120009,30.0079998 31.8880008,26.5839993 31.8880008,24.4399989 C31.8880008,23.6719988 32.0480009,23.0639987 32.0480009,22.6799986 C32.0480009,22.1999986 31.8560008,21.8479985 31.5680008,21.8479985 C30.3200006,21.8479985 29.7440005,23.2239987 29.7440005,24.2479989 L29.7440005,24.2479989 Z M34.9600014,21.3679984 C35.6000015,21.3679984 36.3040016,22.3919986 36.6240016,23.2879987 C35.3440014,23.0639987 34.4800013,22.1359985 34.4800013,21.6239985 C34.4800013,21.3999984 34.7680013,21.3679984 34.9600014,21.3679984 L34.9600014,21.3679984 Z M46.8320008,22.4239986 C46.8320008,19.9919982 48.272001,18.903998 49.8080012,18.903998 C51.6640016,18.903998 53.6800019,20.4719983 53.6800019,23.1279987 C53.6800019,24.0239989 53.3920018,24.631999 52.6560017,24.631999 C51.8880016,24.631999 50.0960013,22.8079987 49.4560012,22.8079987 C48.592001,22.8079987 48.368001,23.1279987 48.368001,23.4799988 C48.368001,25.111999 50.8000014,26.9999993 52.4320017,26.9999993 C54.640002,26.9999993 55.3440022,24.0239989 55.3440022,23.0319987 C55.3440022,19.3519981 52.4320017,17.3359978 50.0960013,17.3359978 C47.5680009,17.3359978 45.0720005,19.095998 45.0720005,22.3919986 C45.0720005,26.3599992 47.2160008,31.224 52.2720017,31.224 C58.8320027,31.224 61.9040032,19.8319982 63.5360035,13.8479972 L63.6960035,13.2399971 C64.6240037,14.5519973 64.3040036,16.6959977 66.416004,16.6959977 C67.0880041,16.6959977 67.5680042,16.2799976 68.8160044,15.1279974 C69.9040045,14.1039972 71.3760048,12.855997 71.9200049,12.855997 C72.3040049,12.855997 72.464005,13.1439971 72.464005,13.6239972 C72.464005,14.4559973 71.9200049,15.8639975 71.0240047,17.0799977 C70.8000047,16.9519977 70.6080047,16.9519977 70.2880046,16.9519977 C68.4320043,16.9519977 67.7280042,17.9759979 67.7280042,19.2559981 C67.7280042,20.0559982 68.1440043,20.9839984 69.0400044,20.9839984 C69.6800045,20.9839984 70.0960046,20.2479982 70.6720047,20.2479982 C71.8880049,20.2479982 74.8320054,27.8639995 77.4240058,40.7280016 C78.0000059,43.6720021 78.704006,45.4960024 80.1120062,45.4960024 C80.4640063,45.4960024 80.6560063,45.4960024 80.6560063,45.1760023 C80.6560063,44.8880023 80.4000063,43.9600021 79.8560062,42.6480019 C78.896006,40.4400015 78.1600059,36.7920009 77.3920058,33.4640004 L76.5280056,29.8479998 C75.2160054,24.1839989 73.0720051,20.1839982 72.1760049,18.775998 C72.1760049,18.711998 72.1440049,18.615998 72.1440049,18.519998 C72.1440049,17.5599978 74.2880053,16.4399976 74.2880053,13.3039971 C74.2880053,12.2479969 73.4240051,10.6159967 72.2080049,10.6159967 C70.5440046,10.6159967 67.8560042,14.4559973 66.416004,14.4559973 C65.0720038,14.4559973 64.6240037,9.36799645 64.6240037,6.583996 C64.6240037,4.91999573 64.7520037,1.55999517 64.7520037,1.43199515 C64.7520037,1.01599509 64.5920037,0.631995022 64.0800036,0.631995022 C63.2480035,0.631995022 62.7680034,1.75199521 62.7680034,2.51999533 C62.7680034,4.56799567 62.9280034,7.8319962 62.9280034,7.89599621 C62.9280034,8.05599624 62.8960034,8.21599627 62.8960034,8.34399629 C61.7760032,17.1439977 57.5200025,29.6559998 52.5280017,29.6559998 C48.432001,29.6559998 46.8320008,25.4639991 46.8320008,22.4239986 L46.8320008,22.4239986 Z M89.7120016,2.55199534 C90.5440017,2.55199534 90.8960018,3.25599545 90.8960018,4.40799564 C90.8960018,7.38399613 88.5600014,13.3679971 86.384001,17.9119979 C86.448001,11.1279967 87.1520011,2.55199534 89.7120016,2.55199534 L89.7120016,2.55199534 Z M98.288003,31.6400001 C99.7600032,31.6400001 101.840004,31.032 101.840004,30.6159999 C101.840004,30.2959999 101.424003,29.7199998 101.040003,29.7199998 C100.848003,29.7199998 99.9200032,30.3279999 98.544003,30.3279999 C94.0000023,30.3279999 94.6080024,22.1679986 91.0560018,22.1679986 C89.2960015,22.1679986 87.7920012,29.3359997 87.3120012,29.3359997 C86.9280011,29.3359997 86.512001,25.4319991 86.384001,21.0159984 C88.9120014,16.4079976 92.432002,8.50399631 92.432002,3.99199557 C92.432002,1.91199523 91.6960019,0.567995012 89.7760016,0.567995012 C86.384001,0.567995012 84.7520008,7.12799609 84.7520008,18.4879979 L84.7520008,21.0799984 C84.1440007,22.2319986 83.4080005,23.0639987 83.4080005,23.5759988 C83.4080005,24.0239989 83.6640006,24.5679989 83.9520006,24.5679989 C84.0800006,24.5679989 84.4000007,24.2479989 84.8480008,23.6079988 C85.0720008,29.3359997 85.7440009,32.2800002 87.0560011,32.2800002 C88.9440014,32.2800002 89.9360016,24.5359989 91.2800018,24.5359989 C92.432002,24.5359989 93.5200022,31.6400001 98.288003,31.6400001 L98.288003,31.6400001 Z M124.176004,4.31199563 C124.368004,4.31199563 124.464004,4.69599569 124.464004,5.14399576 C124.464004,7.51199615 122.096003,12.631997 120.848003,14.4239973 C121.008003,11.5759968 122.320003,4.31199563 124.176004,4.31199563 L124.176004,4.31199563 Z M127.056004,31.6400001 C129.264005,31.6400001 130.896005,30.936 130.896005,30.6159999 C130.896005,30.2959999 130.480005,29.7199998 130.096005,29.7199998 C129.872005,29.7199998 129.104005,30.3279999 127.440004,30.3279999 C122.512004,30.3279999 120.912003,20.8559983 120.912003,17.3679978 C124.080004,12.407997 126.448004,7.41599613 126.448004,3.89599556 C126.448004,2.64799535 125.776004,1.87999523 124.688004,1.87999523 C120.048003,1.87999523 119.056003,14.7759973 119.056003,15.7999975 L119.056003,16.5039976 L118.800003,16.8559977 C117.232003,19.031998 114.608002,22.6799986 111.344002,22.6799986 C110.448002,22.6799986 110.544002,20.7599983 109.008001,20.7599983 C108.400001,20.7599983 108.240001,21.0799984 108.240001,21.4959984 C108.240001,22.2639986 108.848001,23.3199987 109.168001,23.6399988 C109.360001,24.2799989 109.552001,25.3999991 109.552001,26.5519993 C109.552001,28.4399996 109.040001,30.3599999 107.216001,30.3599999 C105.968001,30.3599999 105.040001,28.7279996 105.040001,26.9999993 C105.040001,25.111999 105.424001,24.1199989 106.224001,23.9599988 C106.224001,23.9599988 106.448001,24.0559989 106.832001,24.0559989 C107.280001,24.0559989 107.504001,23.7359988 107.504001,23.3519987 C107.504001,22.6479986 106.928001,21.6879985 106.384001,21.6879985 C104.368001,21.6879985 103.504,23.9599988 103.504,26.4239992 C103.504,29.4639997 104.848001,32.6960003 107.344001,32.6960003 C109.200001,32.6960003 110.960002,30.5199999 110.960002,26.9039993 C110.960002,26.2319992 110.896002,25.4319991 110.704002,24.3439989 C113.680002,24.3439989 117.264003,21.6879985 119.120003,18.999998 C119.184003,19.031998 119.248003,19.1599981 119.248003,19.4159981 C119.248003,21.3999984 121.136003,31.6400001 127.056004,31.6400001 L127.056004,31.6400001 Z M132.368,27.8319995 C131.6,28.6959996 130.512,29.5279998 129.488,29.9759998 C129.296,30.0399998 129.296,30.2639999 129.296,30.3599999 C129.296,30.776 129.36,31.096 130.032,31.096 C130.416,31.096 131.984,30.2959999 133.328001,29.0479997 C135.536001,26.9679993 136.560001,25.2399991 137.136001,25.2399991 C138.640001,25.2399991 139.152001,31.3200001 142.032002,31.3200001 C143.984002,31.3200001 146.288003,25.4319991 147.408003,25.4319991 C148.912003,25.4319991 148.688003,31.7040001 152.176004,31.7040001 C154.992004,31.7040001 156.912004,25.6239991 158.192005,25.6239991 C159.152005,25.6239991 158.864005,31.6400001 163.344005,31.6400001 C165.552006,31.6400001 167.184006,30.936 167.184006,30.6159999 C167.184006,30.2959999 166.768006,29.7199998 166.384006,29.7199998 C166.160006,29.7199998 165.392006,30.3279999 163.728006,30.3279999 C160.016005,30.3279999 161.008005,23.3839988 158.736005,23.3839988 C155.504004,23.3839988 154.672004,30.0079998 151.824004,30.0079998 C150.416003,30.0079998 149.648003,22.5519986 147.696003,22.5519986 C145.616003,22.5519986 143.600002,29.2079997 141.904002,29.2079997 C140.784002,29.2079997 139.696002,22.9679987 137.328001,22.9679987 C135.760001,22.9679987 133.712001,26.2959992 132.368,27.8319995 L132.368,27.8319995 Z M169.616001,29.0479997 C171.856001,26.9359993 174.096001,23.8319988 176.656002,23.8319988 C178.256002,23.8319988 180.720002,25.9439992 180.720002,27.7359995 C180.720002,29.1119997 180.432002,29.8159998 179.888002,30.1999999 C178.992002,30.1999999 177.776002,30.6159999 177.776002,31.7360001 C177.776002,32.3760002 178.544002,32.7280003 179.216002,32.7280003 C180.048002,32.7280003 180.784002,32.1520002 181.264002,31.5760001 L181.520002,31.5760001 C184.368003,31.5760001 185.424003,30.712 185.424003,29.9439998 C185.424003,29.8159998 185.392003,29.3999997 185.200003,29.3999997 C184.880003,29.3999997 184.592003,29.5919998 184.272003,29.7199998 C183.952003,29.8479998 183.152003,30.2639999 182.000003,30.2639999 C182.320003,29.4319997 182.448003,28.5359996 182.448003,28.1519995 C182.448003,24.631999 179.152002,21.5919985 176.560002,21.5919985 C173.616001,21.5919985 171.280001,24.855999 168.656,27.8319995 C167.92,28.6639996 166.8,29.5279998 165.776,29.9759998 C165.584,30.0399998 165.584,30.2639999 165.584,30.3599999 C165.584,30.776 165.648,31.096 166.32,31.096 C166.704,31.096 168.24,30.3599999 169.616001,29.0479997 L169.616001,29.0479997 Z" id="Stockholms" fill="#FFFFFF" sketch:type="MSShapeGroup"></path>
        <path d="M100.688,65.7999988 C100.56,66.0879989 100.496,66.4079989 100.496,66.727999 C100.496,67.2079991 100.624,67.4639991 100.912,67.4639991 C101.072001,67.4639991 101.296001,67.3359991 101.584001,66.983999 L101.744001,66.759999 C102.864001,70.9199997 105.072001,73.8320001 108.656002,73.8320001 C111.920002,73.8320001 114.192003,71.9439998 114.864003,66.887999 C115.120003,66.951999 115.472003,66.983999 115.888003,66.983999 C117.744003,66.983999 120.656004,66.3439989 120.752004,64.9679987 C120.752004,64.7759987 120.688004,64.4559986 120.496004,64.4559986 C120.208004,64.4879986 117.872003,65.5439988 116.112003,65.5439988 C115.600003,65.5439988 115.184003,65.4799988 114.832003,65.2559987 C114.576003,62.5679983 113.552003,60.1999979 111.472002,60.1999979 C110.320002,60.1999979 109.680002,61.031998 109.680002,62.0239982 C109.680002,63.3999984 110.576002,65.7359988 113.200002,66.5679989 C113.040002,70.6639996 110.800002,72.1359999 108.624002,72.1359999 C105.520001,72.1359999 103.792001,69.1279994 103.088001,64.9999987 C106.064001,60.839998 110.608002,53.4159968 110.608002,47.3359958 C110.608002,44.8399954 109.296002,42.471995 107.408002,42.471995 C103.376001,42.471995 100.912,51.3999965 100.912,59.5919978 C100.912,61.3519981 101.04,63.0479984 101.296001,64.6159986 L100.688,65.7999988 Z M107.216002,44.9039954 C108.048002,44.9039954 108.816002,45.7679955 108.816002,47.4319958 C108.816002,52.8719967 106.000001,57.1919974 103.472001,61.095998 C103.216001,61.4799981 102.960001,61.8319982 102.736001,62.2159982 C102.672001,61.4159981 102.672001,60.583998 102.672001,59.7199978 C102.672001,52.5199966 104.528001,44.9039954 107.216002,44.9039954 L107.216002,44.9039954 Z M111.632002,61.9279982 C112.432002,61.9279982 113.104002,64.1679986 113.104002,64.7119986 C111.984002,64.2639986 111.216002,62.7919983 111.216002,62.2479982 C111.216002,62.0559982 111.344002,61.9279982 111.632002,61.9279982 L111.632002,61.9279982 Z M122.192001,57.1599974 C122.128001,57.3199974 122.064001,57.5119975 122.064001,57.6719975 C122.064001,58.3439976 122.864001,59.0799977 123.696001,59.0799977 C124.016001,59.0799977 124.528001,58.5679976 124.528001,57.4799975 C124.528001,56.9039974 124.176001,56.3919973 123.344001,56.3919973 C122.928001,56.3919973 122.192001,56.7119973 122.192001,57.1599974 L122.192001,57.1599974 Z M127.152001,56.6159973 C127.216001,57.4159974 128.304002,57.7679975 129.296002,57.7679975 C130.160002,57.7039975 130.448002,57.5439975 130.448002,57.0319974 C130.448002,56.5839973 130.128002,55.2719971 129.072002,55.2719971 C127.984002,55.2719971 127.152001,55.9439972 127.152001,56.6159973 L127.152001,56.6159973 Z M140.720004,72.904 C140.816004,72.84 141.008004,72.744 141.008004,72.5839999 C141.008004,72.2959999 140.592004,71.7199998 140.208004,71.7199998 C139.984004,71.7199998 139.280003,72.3279999 137.296003,72.3279999 C134.544003,72.3279999 132.528002,67.6879991 131.920002,65.7679988 C131.600002,64.8079987 131.024002,65.1919987 130.576002,64.6159986 C129.232002,62.8879983 128.592002,62.0879982 127.024001,62.0879982 C123.312001,62.0879982 121.488,66.0239989 121.488,69.1919994 C121.488,71.8479998 122.576001,73.4480001 124.912001,73.4480001 C127.088001,73.4480001 129.872002,70.9199997 130.576002,68.2959992 C131.792002,68.3599992 132.144002,73.6400001 137.392003,73.6400001 C138.512003,73.6400001 139.792003,73.4160001 140.720004,72.904 L140.720004,72.904 Z M123.024001,68.4239992 C123.152001,65.7999988 124.816001,63.9759985 127.024001,63.9759985 C128.144002,63.9759985 129.168002,65.0639987 129.168002,65.9919989 C129.168002,68.5519993 126.448001,71.4959998 124.656001,71.4959998 C123.568001,71.4959998 123.024001,69.9919995 123.024001,68.4239992 L123.024001,68.4239992 Z M140.976,71.1759997 C140.336,71.6239998 139.824,71.8799998 139.6,71.9759998 C139.504,72.0079998 139.408,72.1359999 139.408,72.2639999 C139.408,72.6159999 139.44,72.808 139.568,72.936 C139.728,73.096 139.984,73.096 140.112,73.096 C140.4,73.096 141.04,72.808 141.84,72.2959999 C146.064001,69.6079994 147.152001,65.8319988 150.512002,65.8319988 C152.304002,65.8319988 154.608002,68.0399992 154.640002,69.8319995 C154.640002,70.7279996 154.256002,71.7519998 153.712002,72.2959999 C153.232002,72.744 152.720002,72.712 152.112002,73.3200001 C151.952002,73.4800001 151.952002,73.7360001 151.952002,73.9280002 C151.952002,74.6000003 152.304002,74.9840003 153.072002,74.9840003 C155.440003,74.9840003 156.400003,71.1759997 156.400003,70.2159995 C156.400003,67.5599991 152.976002,63.5919985 150.384002,63.5919985 C146.736001,63.5919985 145.200001,68.1359992 140.976,71.1759997 L140.976,71.1759997 Z M170.896002,73.6400001 C173.104002,73.6400001 174.736003,72.936 174.736003,72.6159999 C174.736003,72.2959999 174.320002,71.7199998 173.936002,71.7199998 C173.712002,71.7199998 172.944002,72.3279999 171.280002,72.3279999 C166.128001,72.3279999 164.240001,67.2079991 164.240001,58.8879977 C164.240001,57.8319975 164.304001,56.4239973 164.784001,56.2639973 C167.280001,56.1039972 169.392002,55.7199972 172.624002,55.3999971 C177.328003,54.951997 185.616004,53.3199968 187.600005,52.9679967 C190.352005,52.4879966 195.312006,51.9119965 198.480006,51.1439964 C198.736006,51.0799964 198.736006,50.7919964 198.736006,50.5359963 C198.736006,50.0239962 198.160006,49.7999962 197.616006,49.7999962 C197.296006,49.7999962 190.416005,50.7919964 186.736004,51.2399964 C182.640004,51.7199965 174.960003,52.1359966 174.960003,52.1359966 C171.216002,52.2639966 170.032002,52.3919966 166.800001,52.3919966 C166.544001,52.3919966 164.880001,52.2639966 164.624001,52.2639966 C164.272001,50.6959963 164.208001,49.2559961 163.760001,49.2559961 C162.608001,49.2559961 162.928001,51.1119964 162.512001,52.7439967 C162.256,53.6719968 159.984,53.5759968 159.984,55.1759971 C159.984,55.7839972 162.096,55.9119972 162.192,56.4879973 C163.280001,62.3119982 161.84,73.6400001 170.896002,73.6400001 L170.896002,73.6400001 Z M187.696002,67.2399991 C187.216002,67.2399991 187.152002,66.983999 187.152002,66.695999 L187.152002,66.3439989 C187.152002,64.1999986 186.224002,61.7039981 184.048002,61.7039981 C181.296001,61.7039981 179.600001,65.4479988 178.928001,66.887999 C178.800001,67.047999 178.896001,67.2399991 176.272,69.8319995 C175.824,70.2799996 175.28,70.7599996 174.736,71.1439997 C174.288,71.4639997 173.808,71.7839998 173.328,71.9759998 C173.136,72.0399998 173.136,72.2639999 173.136,72.3599999 C173.136,72.776 173.2,73.096 173.872,73.096 C174.256,73.096 175.76,72.3279999 177.168001,71.0479997 C177.488001,70.7599996 178.192001,69.9599995 178.352001,69.9599995 C179.376001,69.9599995 179.536001,73.288 182.576001,73.288 C185.232002,73.288 186.032002,69.5439994 187.376002,69.5439994 C189.168003,69.5439994 190.320003,73.6400001 193.456003,73.6400001 C194.768003,73.6400001 196.752004,73 196.752004,72.6159999 C196.752004,72.2959999 196.336004,71.7199998 195.952004,71.7199998 C195.760004,71.7199998 194.992003,72.2639999 193.808003,72.2639999 C190.256003,72.2639999 190.640003,67.2399991 187.696002,67.2399991 L187.696002,67.2399991 Z M183.792002,63.2719984 C184.880002,63.2719984 185.328002,64.5199986 185.328002,65.9599988 C185.328002,68.2639992 184.016002,71.0799997 182.256001,71.0799997 C181.104001,71.0799997 180.240001,69.7039995 180.240001,68.9359993 C180.240001,67.9759992 181.200001,63.2719984 183.792002,63.2719984 L183.792002,63.2719984 Z" id="bästa" fill="#FFFFFF" sketch:type="MSShapeGroup"></path>
    </g>
</svg>