<svg width="199" height="75" viewBox="0 0 199 75" xmlns="http://www.w3.org/2000/svg"><title>Slice 1</title><desc>Created with Sketch.</desc><g id="Page-1" fill="none" fill-rule="evenodd"><g fill="#fff"><g><path d="M10.032 32.024C6.032 26.68 1.84 19.8 1.84 12.44c0-7.776 4.064-9.632 4.064-10.816 0-.48-.448-.48-.736-.48-3.552.8-5.056 8.832-5.056 11.84 0 4.128 1.28 8.384 4.064 13.28 5.888 10.432 11.68 14.048 15.872 21.312.416.736.608 1.504.608 2.208 0 1.216-.608 2.304-1.952 2.944-1.92.928-4.16.064-4.16 1.728 0 .704.416.928 1.216.928 1.088 0 2.656-.48 3.552-.896 2.304-1.12 3.328-2.752 3.328-4.544 0-.96-.288-1.952-.832-2.944-2.88-5.28-8.224-10.176-11.776-14.976zm8.992-1.12c.16 2.24.8 2.272 1.28 2.272.352 0 .544 0 .544-.608 0-.256 0-.512-.064-.896-1.28-6.336-1.984-10.752-2.016-14.208 0-.256.032-.512.032-.736 6.304-.8 8.384-1.984 8.384-2.624 0-.8-5.12-.8-8.32-1.696-.352-.032-.448-2.272-.448-4.96 0-.48-.064-.768-.416-.768-.896 0-.8.288-.896 1.376-.224 2.592-.416 4.192-.416 4.352-1.536-.032-3.68-.608-5.984-.608-.928 0-1.056.448-1.056 1.216 0 1.376 2.24 3.744 7.168 3.744.384 0 .288 3.104 2.208 14.144zm10.72-6.656c0 2.592 1.44 7.456 5.216 7.456 2.56 0 3.84-2.912 3.84-5.344 0-.576 0-.896-.064-1.344.832-.064 5.632-.416 5.632-2.048 0-.192-.064-.512-.256-.512-.352.032-3.008 1.024-5.216 1.024-.288 0-.448-.064-.48-.192-.64-1.888-1.984-3.52-3.52-3.52-1.408 0-2.112.8-2.112 1.76 0 1.344 1.408 2.848 4.224 3.392.128.384.224.896.224 1.632 0 1.504-1.056 3.456-2.528 3.456-2.592 0-2.816-3.424-2.816-5.568 0-.768.16-1.376.16-1.76 0-.48-.192-.832-.48-.832-1.248 0-1.824 1.376-1.824 2.4zm5.216-2.88c.64 0 1.344 1.024 1.664 1.92-1.28-.224-2.144-1.152-2.144-1.664 0-.224.288-.256.48-.256zm11.872 1.056c0-2.432 1.44-3.52 2.976-3.52 1.856 0 3.872 1.568 3.872 4.224 0 .896-.288 1.504-1.024 1.504-.768 0-2.56-1.824-3.2-1.824-.864 0-1.088.32-1.088.672 0 1.632 2.432 3.52 4.064 3.52 2.208 0 2.912-2.976 2.912-3.968 0-3.68-2.912-5.696-5.248-5.696-2.528 0-5.024 1.76-5.024 5.056 0 3.968 2.144 8.832 7.2 8.832 6.56 0 9.632-11.392 11.264-17.376l.16-.608c.928 1.312.608 3.456 2.72 3.456.672 0 1.152-.416 2.4-1.568 1.088-1.024 2.56-2.272 3.104-2.272.384 0 .544.288.544.768 0 .832-.544 2.24-1.44 3.456-.224-.128-.416-.128-.736-.128-1.856 0-2.56 1.024-2.56 2.304 0 .8.416 1.728 1.312 1.728.64 0 1.056-.736 1.632-.736 1.216 0 4.16 7.616 6.752 20.48.576 2.944 1.28 4.768 2.688 4.768.352 0 .544 0 .544-.32 0-.288-.256-1.216-.8-2.528-.96-2.208-1.696-5.856-2.464-9.184l-.864-3.616c-1.312-5.664-3.456-9.664-4.352-11.072 0-.064-.032-.16-.032-.256 0-.96 2.144-2.08 2.144-5.216 0-1.056-.864-2.688-2.08-2.688-1.664 0-4.352 3.84-5.792 3.84-1.344 0-1.792-5.088-1.792-7.872 0-1.664.128-5.024.128-5.152 0-.416-.16-.8-.672-.8-.832 0-1.312 1.12-1.312 1.888 0 2.048.16 5.312.16 5.376 0 .16-.032.32-.032.448-1.12 8.8-5.376 21.312-10.368 21.312-4.096 0-5.696-4.192-5.696-7.232zm42.88-19.872c.832 0 1.184.704 1.184 1.856 0 2.976-2.336 8.96-4.512 13.504.064-6.784.768-15.36 3.328-15.36zm8.576 29.088c1.472 0 3.552-.608 3.552-1.024 0-.32-.416-.896-.8-.896-.192 0-1.12.608-2.496.608-4.544 0-3.936-8.16-7.488-8.16-1.76 0-3.264 7.168-3.744 7.168-.384 0-.8-3.904-.928-8.32 2.528-4.608 6.048-12.512 6.048-17.024 0-2.08-.736-3.424-2.656-3.424-3.392 0-5.024 6.56-5.024 17.92v2.592c-.608 1.152-1.344 1.984-1.344 2.496 0 .448.256.992.544.992.128 0 .448-.32.896-.96.224 5.728.896 8.672 2.208 8.672 1.888 0 2.88-7.744 4.224-7.744 1.152 0 2.24 7.104 7.008 7.104zm25.888-27.328c.192 0 .288.384.288.832 0 2.368-2.368 7.488-3.616 9.28.16-2.848 1.472-10.112 3.328-10.112zm41.97 25.487c-.378.163-1.13.528-2.418.528-3.712 0-2.72-6.944-4.992-6.944-3.232 0-4.064 6.624-6.912 6.624-1.408 0-2.176-7.456-4.128-7.456-2.08 0-4.096 6.656-5.792 6.656-1.12 0-2.208-6.24-4.576-6.24-1.568 0-3.616 3.328-4.96 4.864-.674.76-1.595 1.493-2.503 1.964-.375.163-1.128.532-2.425.532-4.928 0-6.528-9.472-6.528-12.96 3.168-4.96 5.536-9.952 5.536-13.472 0-1.248-.672-2.016-1.76-2.016-4.64 0-5.632 12.896-5.632 13.92v.704l-.256.352c-1.568 2.176-4.192 5.824-7.456 5.824-.896 0-.8-1.92-2.336-1.92-.608 0-.768.32-.768.736 0 .768.608 1.824.928 2.144.192.64.384 1.76.384 2.912 0 1.888-.512 3.808-2.336 3.808-1.248 0-2.176-1.632-2.176-3.36 0-1.888.384-2.88 1.184-3.04 0 0 .224.096.608.096.448 0 .672-.32.672-.704 0-.704-.576-1.664-1.12-1.664-2.016 0-2.88 2.272-2.88 4.736 0 3.04 1.344 6.272 3.84 6.272 1.856 0 3.616-2.176 3.616-5.792 0-.672-.064-1.472-.256-2.56 2.976 0 6.56-2.656 8.416-5.344.064.032.128.16.128.416 0 1.984 1.888 12.224 7.808 12.224 1.638 0 2.958-.387 3.532-.718.673-.3 1.765-.97 2.74-1.874 2.208-2.08 3.232-3.808 3.808-3.808 1.504 0 2.016 6.08 4.896 6.08 1.952 0 4.256-5.888 5.376-5.888 1.504 0 1.28 6.272 4.768 6.272 2.816 0 4.736-6.08 6.016-6.08.96 0 .672 6.016 5.152 6.016 1.582 0 2.868-.36 3.47-.684.66-.27 1.776-.93 2.802-1.908 2.24-2.112 4.48-5.216 7.04-5.216 1.6 0 4.064 2.112 4.064 3.904 0 1.376-.288 2.08-.832 2.464-.896 0-2.112.416-2.112 1.536 0 .64.768.992 1.44.992.832 0 1.568-.576 2.048-1.152h.256c2.848 0 3.904-.864 3.904-1.632 0-.128-.032-.544-.224-.544-.32 0-.608.192-.928.32-.32.128-1.12.544-2.272.544.32-.832.448-1.728.448-2.112 0-3.52-3.296-6.56-5.888-6.56-2.944 0-5.28 3.264-7.904 6.24-.648.733-1.594 1.49-2.51 1.967z"/><path d="M100.688 65.8c-.128.288-.192.608-.192.928 0 .48.128.736.416.736.16 0 .384-.128.672-.48l.16-.224c1.12 4.16 3.328 7.072 6.912 7.072 3.264 0 5.536-1.888 6.208-6.944.256.064.608.096 1.024.096 1.856 0 4.768-.64 4.864-2.016 0-.192-.064-.512-.256-.512-.288.032-2.624 1.088-4.384 1.088-.512 0-.928-.064-1.28-.288-.256-2.688-1.28-5.056-3.36-5.056-1.152 0-1.792.832-1.792 1.824 0 1.376.896 3.712 3.52 4.544-.16 4.096-2.4 5.568-4.576 5.568-3.104 0-4.832-3.008-5.536-7.136 2.976-4.16 7.52-11.584 7.52-17.664 0-2.496-1.312-4.864-3.2-4.864-4.032 0-6.496 8.928-6.496 17.12 0 1.76.128 3.456.384 5.024l-.608 1.184zm6.528-20.896c.832 0 1.6.864 1.6 2.528 0 5.44-2.816 9.76-5.344 13.664-.256.384-.512.736-.736 1.12-.064-.8-.064-1.632-.064-2.496 0-7.2 1.856-14.816 4.544-14.816zm4.416 17.024c.8 0 1.472 2.24 1.472 2.784-1.12-.448-1.888-1.92-1.888-2.464 0-.192.128-.32.416-.32zm10.56-4.768c-.064.16-.128.352-.128.512 0 .672.8 1.408 1.632 1.408.32 0 .832-.512.832-1.6 0-.576-.352-1.088-1.184-1.088-.416 0-1.152.32-1.152.768zm4.96-.544c.064.8 1.152 1.152 2.144 1.152.864-.064 1.152-.224 1.152-.736 0-.448-.32-1.76-1.376-1.76-1.088 0-1.92.672-1.92 1.344zm13.568 16.288c.096-.064.288-.16.288-.32 0-.288-.416-.864-.8-.864-.224 0-.928.608-2.912.608-2.752 0-4.768-4.64-5.376-6.56-.32-.96-.896-.576-1.344-1.152-1.344-1.728-1.984-2.528-3.552-2.528-3.712 0-5.536 3.936-5.536 7.104 0 2.656 1.088 4.256 3.424 4.256 2.176 0 4.96-2.528 5.664-5.152 1.216.064 1.568 5.344 6.816 5.344 1.12 0 2.4-.224 3.328-.736zm-17.696-4.48c.128-2.624 1.792-4.448 4-4.448 1.12 0 2.144 1.088 2.144 2.016 0 2.56-2.72 5.504-4.512 5.504-1.088 0-1.632-1.504-1.632-3.072zm16.576 3.552c-.096.032-.192.16-.192.288 0 .352.032.544.16.672.16.16.416.16.544.16.288 0 .928-.288 1.728-.8 4.224-2.688 5.312-6.464 8.672-6.464 1.792 0 4.096 2.208 4.128 4 0 .896-.384 1.92-.928 2.464-.48.448-.992.416-1.6 1.024-.16.16-.16.416-.16.608 0 .672.352 1.056 1.12 1.056 2.368 0 3.328-3.808 3.328-4.768 0-2.656-3.424-6.624-6.016-6.624-3.648 0-5.184 4.544-9.408 7.584-.64.448-1.152.704-1.376.8zm34.823.95c-.575.33-1.894.714-3.527.714-9.056 0-7.616-11.328-8.704-17.152-.096-.576-2.208-.704-2.208-1.312 0-1.6 2.272-1.504 2.528-2.432.416-1.632.096-3.488 1.248-3.488.448 0 .512 1.44.864 3.008.256 0 1.92.128 2.176.128 3.232 0 4.416-.128 8.16-.256 0 0 7.68-.416 11.776-.896 3.68-.448 10.56-1.44 10.88-1.44.544 0 1.12.224 1.12.736 0 .256 0 .544-.256.608-3.168.768-8.128 1.344-10.88 1.824-1.984.352-10.272 1.984-14.976 2.432-3.232.32-5.344.704-7.84.864-.48.16-.544 1.568-.544 2.624 0 8.32 1.888 13.44 7.04 13.44 1.36 0 2.12-.406 2.477-.555.334-.18.665-.404.98-.63.543-.383 1.087-.863 1.535-1.31 2.624-2.593 2.528-2.785 2.656-2.945.672-1.44 2.368-5.184 5.12-5.184 2.176 0 3.104 2.496 3.104 4.64v.352c0 .288.064.544.544.544 2.944 0 2.56 5.024 6.112 5.024 1.184 0 1.952-.544 2.144-.544.384 0 .8.576.8.896 0 .384-1.984 1.024-3.296 1.024-3.136 0-4.288-4.096-6.08-4.096-1.344 0-2.144 3.744-4.8 3.744-3.04 0-3.2-3.328-4.224-3.328-.16 0-.864.8-1.184 1.088-1.018.925-2.086 1.583-2.745 1.877zm9.37-9.654c1.087 0 1.535 1.248 1.535 2.688 0 2.304-1.312 5.12-3.072 5.12-1.152 0-2.016-1.376-2.016-2.144 0-.96.96-5.664 3.552-5.664z"/></g><path d="M141.468 72.317c-.13-.31-.807-1.046-1.772-.4-.966.645-.796.91-.667 1.215.128.305.156.347 1.068.09.505-.31 1.5-.595 1.37-.905z"/></g></g></svg>